<svg id="Capa_1" enable-background="new 0 0 512 512" height="512" viewBox="0 0 512 512" width="512" xmlns="http://www.w3.org/2000/svg"><path id="XMLID_1044_" d="m0 21v470h512v-470zm30 30h39.333v39.333h-39.333zm355.6 209.793h-66.4v-69.654h66.4zm-96.4 30.449v69.654h-66.4v-69.654zm-96.4 0v69.654h-66.4v-69.654zm126.4 69.654v-69.654h66.4v69.654zm-222.8 0h-66.4v-69.654h66.4zm319.2-69.654h66.4v69.654h-66.4zm-126.4-30.449h-66.4v-69.654h66.4zm-96.4 0h-66.4v-69.654h66.4zm-96.4 0h-66.4v-69.654h66.4zm-66.4 200.207v-69.654h66.4v69.654zm96.4 0v-69.654h66.4v69.654zm96.4 0v-69.654h66.4v69.654zm96.4 0v-69.654h66.4v69.654zm162.8 0h-66.4v-69.654h66.4zm0-200.207h-66.4v-69.654h66.4zm0-99.654h-452v-40.806h452zm-382.667-70.806v-39.333h382.667v39.333z"/><path id="XMLID_1150_" d="m256 341.069h.278c8.285 0 15-6.716 15-15s-6.715-15-15-15h-.278c-8.284 0-15 6.716-15 15s6.716 15 15 15z"/><path id="XMLID_1151_" d="m159.739 411.173h-.278c-8.284 0-15 6.716-15 15s6.716 15 15 15h.278c8.284 0 15-6.716 15-15s-6.716-15-15-15z"/><path id="XMLID_1152_" d="m448.661 441.173h.277c8.284 0 15-6.716 15-15s-6.716-15-15-15h-.277c-8.284 0-15 6.716-15 15s6.716 15 15 15z"/><path id="XMLID_1153_" d="m159.6 240.966h.278c8.284 0 15-6.716 15-15s-6.716-15-15-15h-.278c-8.284 0-15 6.716-15 15s6.716 15 15 15z"/></svg>