<?xml version="1.0" encoding="iso-8859-1"?>
<!-- Generator: Adobe Illustrator 19.0.0, SVG Export Plug-In . SVG Version: 6.00 Build 0)  -->
<svg version="1.1" id="Capa_1" xmlns="http://www.w3.org/2000/svg" xmlns:xlink="http://www.w3.org/1999/xlink" x="0px" y="0px"
	 viewBox="0 0 512 512" style="enable-background:new 0 0 512 512;" xml:space="preserve">
<g>
	<g>
		<path d="M336.029,155.057c4.571-6.09,8.261-12.944,10.846-20.401c3.133-9.038,1.675-19.11-3.899-26.942
			c-5.641-7.925-14.808-12.657-24.523-12.657h-90.026c-12.02,0-23.32,4.681-31.819,13.18l-42.427,42.427
			c-2.833,2.833-6.6,4.393-10.606,4.393H0v210h163.574c4.006,0,7.773,1.56,10.606,4.394l25.499,25.499
			c14.315,14.316,33.377,21.995,52.938,21.994c7.447,0,14.969-1.113,22.326-3.397l125.63-34.988
			c8.409-2.342,15.705-7.114,21.158-13.5H512V155.057H336.029z M80,335.057H30v-150h50V335.057z M402,338.11
			c-0.06,0.74-0.168,1.376-0.274,1.852c-0.51,2.287-2.427,7.809-9.201,9.695l-125.856,35.051l-0.471,0.14
			c-16.049,5.042-33.41,0.784-45.306-11.112l-25.499-25.499c-8.5-8.5-19.8-13.18-31.82-13.18H110v-150h33.574
			c12.02,0,23.32-4.681,31.819-13.18l42.427-42.427c2.833-2.833,6.6-4.393,10.606-4.393l90.026-0.005
			c-6.329,17.957-23.359,30.005-42.452,30.005h-12.721c-12.021,0-23.321,4.681-31.82,13.18l-63.658,63.658
			c-6.87,6.87-10.006,16.698-8.391,26.291c1.596,9.479,7.688,17.632,16.293,21.808c28.705,13.928,63.167,8.11,85.7-14.422
			l23.763-23.515h13.27l99.079,85.221c3.23,2.779,4.273,6.004,4.485,8.626V338.11z M402,291.565l-92.437-79.508h-36.73
			l-32.586,32.246c-13.5,13.499-34.052,17.02-51.232,8.805l63.658-63.658c2.833-2.833,6.6-4.393,10.606-4.393H276h59.706H402
			V291.565z M482,335.057h-50v-150h50V335.057z"/>
	</g>
</g>
<g>
</g>
<g>
</g>
<g>
</g>
<g>
</g>
<g>
</g>
<g>
</g>
<g>
</g>
<g>
</g>
<g>
</g>
<g>
</g>
<g>
</g>
<g>
</g>
<g>
</g>
<g>
</g>
<g>
</g>
</svg>
