<svg id="Capa_1" enable-background="new 0 0 507 507" height="512" viewBox="0 0 507 507" width="512" xmlns="http://www.w3.org/2000/svg"><path id="XMLID_956_" d="m1.866 507h284.271v-507h-284.271zm30-477h224.271v447h-224.271z"/><path id="XMLID_962_" d="m75.001 70h138v30h-138z"/><path id="XMLID_963_" d="m75.001 130h138v30h-138z"/><path id="XMLID_964_" d="m75.001 190h138v30h-138z"/><path id="XMLID_981_" d="m93.001 377h102v30h-102z"/><path id="XMLID_982_" d="m329.001 224.11h-14.39v30h14.39v133.576h44v-30h-14v-103.576h14v-30h-14v-103.574h14v-30h-44z"/><path id="XMLID_985_" d="m460.136 150.534c24.813 0 44.999-20.186 44.999-44.998s-20.186-44.999-44.999-44.999-44.999 20.187-44.999 44.999 20.186 44.998 44.999 44.998zm0-59.997c8.27 0 14.999 6.729 14.999 14.999s-6.729 14.998-14.999 14.998-14.999-6.729-14.999-14.998c0-8.27 6.729-14.999 14.999-14.999z"/><path id="XMLID_988_" d="m460.136 191.147c-24.813 0-44.999 20.186-44.999 44.998s20.186 44.999 44.999 44.999 44.999-20.187 44.999-44.999-20.187-44.998-44.999-44.998zm0 59.998c-8.27 0-14.999-6.729-14.999-14.999s6.729-14.998 14.999-14.998 14.999 6.729 14.999 14.998c-.001 8.27-6.729 14.999-14.999 14.999z"/><path id="XMLID_991_" d="m460.136 321.757c-24.813 0-44.999 20.187-44.999 44.999s20.186 44.998 44.999 44.998 44.999-20.187 44.999-44.998c-.001-24.813-20.187-44.999-44.999-44.999zm0 59.997c-8.27 0-14.999-6.729-14.999-14.998 0-8.271 6.729-14.999 14.999-14.999s14.999 6.729 14.999 14.999c-.001 8.269-6.729 14.998-14.999 14.998z"/><path id="XMLID_992_" d="m144.14 312.5c8.284 0 15-6.716 15-15s-6.716-15-15-15h-.278c-8.284 0-15 6.716-15 15s6.716 15 15 15z"/></svg>