<svg height="512pt" viewBox="0 0 512 512" width="512pt" xmlns="http://www.w3.org/2000/svg"><path d="m512 120h-60v-120h-392v120h-60v331.5h60v.5h136v30h-45v30h210v-30h-45v-30h136v-.5h60zm-422 301.5v-211.5h332v31h-60v30h60v32h-60v30h60v29h-60v30h60v29.5zm0-391.5h332v30h-332zm332 60v90h-30v-60h-30v60h-30v-60h-30v60h-31v-45h-30v45h-31v-30h-30v30h-30v-60h-30v60h-30v-90zm-392 331.5v-271.5h30v271.5zm256 60.5h-60v-30h60zm196-60.5h-30v-271.5h30zm0 0"/><path d="m195 242c-41.355469 0-75 33.644531-75 75s33.644531 75 75 75 75-33.644531 75-75-33.644531-75-75-75zm42.421875 60h-27.421875v-27.421875c12.765625 4.527344 22.894531 14.65625 27.421875 27.421875zm-42.421875 60c-24.8125 0-45-20.1875-45-45 0-19.554688 12.539062-36.226562 30-42.421875v57.421875h57.421875c-6.195313 17.460938-22.867187 30-42.421875 30zm0 0"/><path d="m302 241h30v30h-30zm0 0"/><path d="m302 302h30v30h-30zm0 0"/><path d="m302 362h30v30h-30zm0 0"/></svg>