<?xml version="1.0" encoding="iso-8859-1"?>
<!-- Generator: Adobe Illustrator 19.0.0, SVG Export Plug-In . SVG Version: 6.00 Build 0)  -->
<svg version="1.1" id="Capa_1" xmlns="http://www.w3.org/2000/svg" xmlns:xlink="http://www.w3.org/1999/xlink" x="0px" y="0px"
	 viewBox="0 0 512.003 512.003" style="enable-background:new 0 0 512.003 512.003;" xml:space="preserve">
<g>
	<g>
		
			<rect x="38.581" y="405.909" transform="matrix(0.7043 -0.7099 0.7099 0.7043 -272.5485 187.4941)" width="100.417" height="29.999"/>
	</g>
</g>
<g>
	<g>
		
			<rect x="5.199" y="473.258" transform="matrix(0.7043 -0.7099 0.7099 0.7043 -339.6283 161.1497)" width="36.855" height="29.999"/>
	</g>
</g>
<g>
	<g>
		<path d="M31.955,153.025l127.017,127.017l-21.739,94.838l94.828-21.749l127.017,127.017L512.003,0.099L31.955,153.025z
			 M88.014,166.655L416.855,61.898L176.542,255.183L88.014,166.655z M228.37,323.201l-51.209,11.74l11.75-51.209l201.635-162.176
			L228.37,323.201z M345.447,424.098l-88.528-88.528L450.215,95.237L345.447,424.098z"/>
	</g>
</g>
<g>
</g>
<g>
</g>
<g>
</g>
<g>
</g>
<g>
</g>
<g>
</g>
<g>
</g>
<g>
</g>
<g>
</g>
<g>
</g>
<g>
</g>
<g>
</g>
<g>
</g>
<g>
</g>
<g>
</g>
</svg>
