<svg height="512pt" viewBox="-14 0 512 512" width="512pt" xmlns="http://www.w3.org/2000/svg"><path d="m104.078125 512 70.273437-60.246094h118.691407l190.394531-159.480468-57.59375-69.105469-122.113281 102.511719v-53.828126h-170.585938l-133.144531 117.671876zm40.417969-210.164062h129.25v29.984374h-89.953125v29.980469h123.539062l114.742188-96.320312 19.179687 23.011719-159.109375 133.277343h-118.890625l-55.828125 47.867188-65.535156-77.121094zm0 0"/><path d="m63.859375 150.917969h50.449219c22.910156 28.417969 60.175781 57.265625 104.644531 95.808593l9.816406 8.507813 9.820313-8.507813c43.945312-38.085937 83.535156-70.339843 104.429687-95.808593h50.660157v-29.984375h-31.71875c4.886718-11.132813 7.804687-23.21875 7.804687-36.554688 0-47.3125-34.257813-84.378906-77.996094-84.378906-31.46875 0-51.3125 18.339844-63 35.539062-11.6875-17.199218-31.53125-35.539062-63-35.539062-43.734375 0-77.996093 37.066406-77.996093 84.378906 0 12.515625 2.542968 24.546875 7.800781 36.554688h-31.714844zm164.898437 64.679687c-29.429687-25.222656-54.78125-45.859375-73.796874-64.679687h20.050781l23.773437-23.773438 29.984375 29.984375 29.984375-29.984375 23.773438 23.761719h19.503906c-18.996094 18.472656-48.625 43.449219-73.273438 64.691406zm-111-131.21875c0-26.367187 16.828126-54.394531 48.011719-54.394531 29.757813 0 43.269531 28.703125 47.699219 41.042969l3.5625 9.929687h23.480469l3.5625-9.929687c4.425781-12.339844 17.9375-41.042969 47.695312-41.042969 31.1875 0 48.011719 28.027344 48.011719 54.394531 0 12.378906-3.578125 23.910156-11.867188 36.554688h-32.96875l-36.191406-36.191406-29.984375 29.980468-29.984375-29.980468-36.191406 36.191406h-32.945312c-7.691407-12.007813-11.890626-23.894532-11.890626-36.554688zm0 0"/></svg>