<svg height="512pt" viewBox="0 0 512 512" width="512pt" xmlns="http://www.w3.org/2000/svg"><path d="m512 256c0-68.378906-26.628906-132.667969-74.980469-181.019531-48.351562-48.351563-112.640625-74.980469-181.019531-74.980469-53.464844 0-104.175781 16.109375-147.425781 46.691406-6.859375-4.238281-14.933594-6.691406-23.574219-6.691406-24.8125 0-45 20.1875-45 45 0 8.640625 2.453125 16.714844 6.691406 23.574219-30.582031 43.25-46.691406 93.960937-46.691406 147.425781 0 68.378906 26.628906 132.667969 74.980469 181.019531 48.351562 48.351563 112.640625 74.980469 181.019531 74.980469 53.796875 0 104.773438-16.292969 148.183594-47.226562 6.699218 3.96875 14.507812 6.253906 22.84375 6.253906 24.8125 0 45-20.1875 45-45 0-8.429688-2.335938-16.324219-6.386719-23.074219 30.367187-43.152344 46.359375-93.703125 46.359375-146.953125zm-427-186c8.269531 0 15 6.730469 15 15s-6.730469 15-15 15-15-6.730469-15-15 6.730469-15 15-15zm-55 186c0-46.546875 13.828125-90.722656 40.097656-128.546875 4.667969 1.644531 9.679688 2.546875 14.902344 2.546875 24.8125 0 45-20.1875 45-45 0-5.222656-.902344-10.234375-2.546875-14.902344 37.820313-26.269531 81.996094-40.097656 128.546875-40.097656 124.617188 0 226 101.382812 226 226 0 46.203125-13.636719 90.101562-39.546875 127.753906-4.8125-1.765625-10.007813-2.726562-15.425781-2.726562-24.8125 0-45 20.1875-45 45 0 5.507812 1 10.789062 2.820312 15.667968-37.886718 26.40625-82.160156 40.304688-128.847656 40.304688-124.617188 0-226-101.382812-226-226zm397.027344 185.027344c-8.269532 0-15-6.730469-15-15 0-8.269532 6.730468-15 15-15 8.269531 0 15 6.730468 15 15 0 8.269531-6.726563 15-15 15zm0 0"/><path d="m256 75c-99.804688 0-181 81.195312-181 181s81.195312 181 181 181 181-81.195312 181-181-81.195312-181-181-181zm150.261719 166h-51.898438c-1.765625-41.03125-10.769531-79.332031-25.792969-109.132812-2.050781-4.066407-4.191406-7.933594-6.417968-11.589844 45.929687 22.476562 78.84375 67.597656 84.109375 120.722656zm-196.042969 125.628906c-12.996094-25.785156-20.855469-59.308594-22.558594-95.628906h53.339844v131.898438c-11.109375-6.035157-21.84375-18.539063-30.78125-36.269532zm30.78125-257.527344v131.898438h-53.339844c1.699219-36.320312 9.5625-69.84375 22.558594-95.628906 8.9375-17.730469 19.671875-30.234375 30.78125-36.269532zm30 293.796876v-131.898438h53.335938c-1.699219 36.320312-9.558594 69.84375-22.554688 95.628906-8.941406 17.730469-19.671875 30.234375-30.78125 36.269532zm0-161.898438v-131.898438c11.109375 6.035157 21.839844 18.539063 30.78125 36.269532 12.996094 25.785156 20.855469 59.308594 22.554688 95.628906zm-81.152344-120.722656c-2.226562 3.65625-4.367187 7.523437-6.417968 11.589844-15.023438 29.804687-24.027344 68.101562-25.792969 109.132812h-51.898438c5.265625-53.125 38.175781-98.246094 84.109375-120.722656zm-84.109375 150.722656h51.898438c1.765625 41.03125 10.769531 79.328125 25.792969 109.132812 2.050781 4.066407 4.191406 7.933594 6.417968 11.589844-45.933594-22.476562-78.84375-67.597656-84.109375-120.722656zm216.414063 120.722656c2.226562-3.65625 4.367187-7.523437 6.417968-11.589844 15.023438-29.800781 24.023438-68.101562 25.792969-109.132812h51.898438c-5.265625 53.125-38.179688 98.246094-84.109375 120.722656zm0 0"/></svg>